# xmcd
#
# Track frame offsets: 
#        150
#        18689
#        87403
#        105989
#
# Disc length: 1471 seconds
#
# Revision: 1
# Processed by: cddbd v1.5.2PL0 Copyright (c) Steve Scherf et al.
# Submitted via: ExactAudioCopyFreeDBPlugin 1.0
#
DISCID=2705bd04
DTITLE=五十嵐響子（CV：種﨑敦美） - THE IDOLM@STER CINDERELLA MASTER 045 五十嵐響子
DYEAR=2016
DGENRE=Game
TTITLE0=恋のHamburg♪
TTITLE1=ドラマ「目指せ！シンデレラNO.1！ -五十嵐響子編-」
TTITLE2=off vocal - 恋のHamburg♪　オリジナル・カラオケ
TTITLE3=ボーナス・トラック
EXTD=
EXTT0=
EXTT1=
EXTT2=
EXTT3=
PLAYORDER=
